<?xml version="1.0" encoding="UTF-8" standalone="no"?>
<svg
   xmlns:ns0="http://www.iki.fi/pav/software/textext/"
   xmlns:dc="http://purl.org/dc/elements/1.1/"
   xmlns:cc="http://creativecommons.org/ns#"
   xmlns:rdf="http://www.w3.org/1999/02/22-rdf-syntax-ns#"
   xmlns:svg="http://www.w3.org/2000/svg"
   xmlns="http://www.w3.org/2000/svg"
   xmlns:sodipodi="http://sodipodi.sourceforge.net/DTD/sodipodi-0.dtd"
   xmlns:inkscape="http://www.inkscape.org/namespaces/inkscape"
   version="1.0"
   baseProfile="full"
   id="body"
   width="247.61212"
   height="97.615669"
   viewBox="0 0 0 1"
   preserveAspectRatio="none"
   sodipodi:version="0.32"
   inkscape:version="0.46"
   sodipodi:docname="incrementalConfiguration.svg"
   inkscape:output_extension="org.inkscape.output.svg.inkscape">
  <sodipodi:namedview
     inkscape:window-height="936"
     inkscape:window-width="1299"
     inkscape:pageshadow="2"
     inkscape:pageopacity="0.0"
     guidetolerance="10.0"
     gridtolerance="10.0"
     objecttolerance="10.0"
     borderopacity="1.0"
     bordercolor="#666666"
     pagecolor="#ffffff"
     id="base"
     showgrid="false"
     inkscape:zoom="3.037008"
     inkscape:cx="123.80606"
     inkscape:cy="48.807835"
     inkscape:window-x="1930"
     inkscape:window-y="60"
     inkscape:current-layer="body"
     units="in"
     inkscape:document-units="in"
     showborder="true" />
  <metadata
     id="metadata2653">
    <rdf:RDF>
      <cc:Work
         rdf:about="">
        <dc:format>image/svg+xml</dc:format>
        <dc:type
           rdf:resource="http://purl.org/dc/dcmitype/StillImage" />
      </cc:Work>
    </rdf:RDF>
  </metadata>
  <defs
     id="defs2651">
    <inkscape:perspective
       sodipodi:type="inkscape:persp3d"
       inkscape:vp_x="0 : 360 : 1"
       inkscape:vp_y="0 : 1000 : 0"
       inkscape:vp_z="720 : 360 : 1"
       inkscape:persp3d-origin="360 : 240 : 1"
       id="perspective2655" />
  </defs>
  <title
     id="title2404">SVG drawing</title>
  <desc
     id="desc2406">This was produced by version 4.2 of GNU libplot, a free library for exporting 2-D vector graphics.</desc>
  <polyline
     style="font-style:normal;font-variant:normal;font-weight:normal;font-stretch:normal;letter-spacing:normal;word-spacing:normal;text-anchor:start;fill-opacity:1;stroke:#000000;stroke-width:0.34596727;stroke-linecap:butt;stroke-linejoin:miter;stroke-miterlimit:10.43299961;stroke-dasharray:none;stroke-dashoffset:0;stroke-opacity:1"
     id="polyline2470"
     points="120.01,73.984 138.28,134.88 138.28,134.88 138.28,134.88 "
     transform="matrix(1.4452234,0,0,-1.4452234,-49.207559,202.07206)" />
  <path
     style="font-style:normal;font-variant:normal;font-weight:normal;font-stretch:normal;letter-spacing:normal;word-spacing:normal;text-anchor:start;fill:#000000;fill-opacity:1;fill-rule:nonzero;stroke:#000000;stroke-width:0;stroke-linecap:butt;stroke-linejoin:miter;stroke-miterlimit:10.43299961;stroke-dasharray:none;stroke-dashoffset:0;stroke-opacity:1"
     id="path2472"
     d="M 148.03654,10.319835 L 150.76801,6.6923241 L 151.04261,11.230327 C 150.3489,10.305383 149.13491,9.9585295 148.03654,10.319835 z" />
  <path
     style="font-style:normal;font-variant:normal;font-weight:normal;font-stretch:normal;letter-spacing:normal;word-spacing:normal;text-anchor:start;fill-opacity:1;stroke:#000000;stroke-width:0;stroke-linecap:butt;stroke-linejoin:miter;stroke-miterlimit:10.43299961;stroke-dasharray:none;stroke-dashoffset:0;stroke-opacity:1"
     id="path2474"
     d="M 148.03654,10.319835 L 150.76801,6.6923241 L 151.04261,11.230327 C 150.3489,10.305383 149.13491,9.9585295 148.03654,10.319835 z" />
  <path
     style="font-style:normal;font-variant:normal;font-weight:normal;font-stretch:normal;letter-spacing:normal;word-spacing:normal;text-anchor:start;fill-opacity:1;stroke:#0000ff;stroke-width:0.5;stroke-linecap:butt;stroke-linejoin:miter;stroke-miterlimit:10.43299961;stroke-dasharray:none;stroke-dashoffset:0;stroke-opacity:1"
     id="path2476"
     d="M 150.79692,6.0419735 C 217.43617,24.425217 217.43617,24.425217 217.43617,24.425217" />
  <path
     style="font-style:normal;font-variant:normal;font-weight:normal;font-stretch:normal;letter-spacing:normal;word-spacing:normal;text-anchor:start;fill:#000000;fill-opacity:1;fill-rule:nonzero;stroke:#000000;stroke-width:0;stroke-linecap:butt;stroke-linejoin:miter;stroke-miterlimit:10.43299961;stroke-dasharray:none;stroke-dashoffset:0;stroke-opacity:1"
     id="path2478"
     d="M 214.19887,21.896076 L 217.89863,24.540834 L 213.37509,24.931045 C 214.27112,24.208434 214.60353,22.994446 214.19887,21.896076 z" />
  <path
     style="font-style:normal;font-variant:normal;font-weight:normal;font-stretch:normal;letter-spacing:normal;word-spacing:normal;text-anchor:start;fill-opacity:1;stroke:#000000;stroke-width:0;stroke-linecap:butt;stroke-linejoin:miter;stroke-miterlimit:10.43299961;stroke-dasharray:none;stroke-dashoffset:0;stroke-opacity:1"
     id="path2480"
     d="M 214.19887,21.896076 L 217.89863,24.540834 L 213.37509,24.931045 C 214.27112,24.208434 214.60353,22.994446 214.19887,21.896076 z" />
  <path
     style="font-style:normal;font-variant:normal;font-weight:normal;font-stretch:normal;letter-spacing:normal;word-spacing:normal;text-anchor:start;fill-opacity:1;stroke:#000000;stroke-width:0.5;stroke-linecap:butt;stroke-linejoin:miter;stroke-miterlimit:10.43299961;stroke-dasharray:none;stroke-dashoffset:0;stroke-opacity:1"
     id="path2482"
     d="M 124.2048,95.046056 C 217.73966,25.248994 217.73966,25.248994 217.73966,25.248994" />
  <path
     style="font-style:normal;font-variant:normal;font-weight:normal;font-stretch:normal;letter-spacing:normal;word-spacing:normal;text-anchor:start;fill:#000000;fill-opacity:1;fill-rule:nonzero;stroke:#000000;stroke-width:0;stroke-linecap:butt;stroke-linejoin:miter;stroke-miterlimit:10.43299961;stroke-dasharray:none;stroke-dashoffset:0;stroke-opacity:1"
     id="path2484"
     d="M 213.76531,26.26065 L 218.12987,24.974401 L 215.64409,28.775339 C 215.62965,27.619161 214.87812,26.607503 213.76531,26.26065 z" />
  <path
     style="font-style:normal;font-variant:normal;font-weight:normal;font-stretch:normal;letter-spacing:normal;word-spacing:normal;text-anchor:start;fill-opacity:1;stroke:#000000;stroke-width:0;stroke-linecap:butt;stroke-linejoin:miter;stroke-miterlimit:10.43299961;stroke-dasharray:none;stroke-dashoffset:0;stroke-opacity:1"
     id="path2486"
     d="M 213.76531,26.26065 L 218.12987,24.974401 L 215.64409,28.775339 C 215.62965,27.619161 214.87812,26.607503 213.76531,26.26065 z" />
  <path
     style="font-style:normal;font-variant:normal;font-weight:normal;font-stretch:normal;letter-spacing:normal;word-spacing:normal;text-anchor:start;fill:none;fill-opacity:1;stroke:#000000;stroke-width:0.5464642;stroke-linecap:butt;stroke-linejoin:miter;stroke-miterlimit:10.43299961;stroke-dasharray:none;stroke-dashoffset:0;stroke-opacity:1"
     id="path2488"
     d="M 124.16146,69.647702 L 124.14699,70.822671 L 124.13254,71.957174 L 124.13254,73.056985 L 124.11809,74.125004 L 124.11809,75.152559 L 124.10364,76.145427 L 124.08919,77.105057 L 124.08919,78.037227 L 124.07473,78.928925 L 124.07473,79.79317 L 124.06029,80.628508 L 124.06029,81.429166 L 124.04583,82.198027 L 124.04583,82.942318 L 124.04583,83.653363 L 124.03139,84.336949 L 124.03139,84.991641 L 124.01693,85.624652 L 124.01693,86.22297 L 124.01693,86.798166 L 124.00248,87.351688 L 124.00248,87.876302 L 124.00248,88.373464 L 123.98802,88.853282 L 123.98802,89.305634 L 123.98802,89.739201 L 123.98802,90.146757 L 123.97356,90.535522 L 123.97356,90.89682 L 123.97356,91.246574 L 123.95912,91.574634 L 123.95912,91.879579 L 123.95912,92.438873 L 123.95912,92.928814 L 123.95912,93.352258 L 123.94467,93.713563 L 123.94467,94.024287 L 123.94467,94.27865 L 123.94467,94.488203 L 123.94467,94.657291 L 123.94467,94.787362 L 123.94467,94.888532 L 123.94467,94.956464 L 123.94467,95.007038 L 123.94467,95.046056 L 123.94467,95.05762 C 126.58941,95.277296 148.06544,95.05762 148.06544,95.05762" />
  <polygon
     style="font-style:normal;font-variant:normal;font-weight:normal;font-stretch:normal;letter-spacing:normal;word-spacing:normal;text-anchor:start;fill:#000000;fill-opacity:1;fill-rule:nonzero;stroke:#000000;stroke-width:0;stroke-linecap:butt;stroke-linejoin:miter;stroke-miterlimit:10.43299961;stroke-dasharray:none;stroke-dashoffset:0;stroke-opacity:1"
     id="polygon2490"
     points="119.93,87.695 121.48,86.113 119.96,91.625 118.34,86.141 119.93,87.695 "
     transform="matrix(1.4452234,0,0,-1.4452234,-49.207559,202.07206)" />
  <polygon
     style="font-style:normal;font-variant:normal;font-weight:normal;font-stretch:normal;letter-spacing:normal;word-spacing:normal;text-anchor:start;fill-opacity:1;stroke:#000000;stroke-width:0;stroke-linecap:butt;stroke-linejoin:miter;stroke-miterlimit:10.43299961;stroke-dasharray:none;stroke-dashoffset:0;stroke-opacity:1"
     id="polygon2492"
     points="119.93,87.695 121.48,86.113 119.96,91.625 118.34,86.141 119.93,87.695 "
     transform="matrix(1.4452234,0,0,-1.4452234,-49.207559,202.07206)" />
  <polygon
     style="font-style:normal;font-variant:normal;font-weight:normal;font-stretch:normal;letter-spacing:normal;word-spacing:normal;text-anchor:start;fill-opacity:1;stroke:#000000;stroke-width:0.39291999;stroke-linecap:butt;stroke-linejoin:miter;stroke-miterlimit:10.43299961;stroke-dasharray:none;stroke-dashoffset:0;stroke-opacity:1"
     id="polygon2494"
     points="119.93,87.695 121.48,86.113 119.96,91.625 118.34,86.141 119.93,87.695 "
     transform="matrix(1.4452234,0,0,-1.4452234,-49.207559,202.07206)" />
  <path
     style="font-style:normal;font-variant:normal;font-weight:normal;font-stretch:normal;letter-spacing:normal;word-spacing:normal;text-anchor:start;fill:#000000;fill-opacity:1;fill-rule:nonzero;stroke:#000000;stroke-width:0;stroke-linecap:butt;stroke-linejoin:miter;stroke-miterlimit:10.43299961;stroke-dasharray:none;stroke-dashoffset:0;stroke-opacity:1"
     id="path2496"
     d="M 141.96661,92.59641 L 148.81696,95.040277 L 142.02441,97.615669 C 143.09388,96.124199 143.06497,94.09799 141.96661,92.59641 z" />
  <path
     style="font-style:normal;font-variant:normal;font-weight:normal;font-stretch:normal;letter-spacing:normal;word-spacing:normal;text-anchor:start;fill-opacity:1;stroke:#000000;stroke-width:0;stroke-linecap:butt;stroke-linejoin:miter;stroke-miterlimit:10.43299961;stroke-dasharray:none;stroke-dashoffset:0;stroke-opacity:1"
     id="path2498"
     d="M 141.96661,92.59641 L 148.81696,95.040277 L 142.02441,97.615669 C 143.09388,96.124199 143.06497,94.09799 141.96661,92.59641 z" />
  <path
     style="font-style:normal;font-variant:normal;font-weight:normal;font-stretch:normal;letter-spacing:normal;word-spacing:normal;text-anchor:start;fill-opacity:1;stroke:#000000;stroke-width:0.5;stroke-linecap:butt;stroke-linejoin:miter;stroke-miterlimit:10.43299961;stroke-dasharray:none;stroke-dashoffset:0;stroke-opacity:1"
     id="path2512"
     d="M 124.39268,95.137109 C 220.42778,55.887731 220.42778,55.887731 220.42778,55.887731" />
  <path
     style="font-style:normal;font-variant:normal;font-weight:normal;font-stretch:normal;letter-spacing:normal;word-spacing:normal;text-anchor:start;fill:#000000;fill-opacity:1;fill-rule:nonzero;stroke:#000000;stroke-width:0;stroke-linecap:butt;stroke-linejoin:miter;stroke-miterlimit:10.43299961;stroke-dasharray:none;stroke-dashoffset:0;stroke-opacity:1"
     id="path2514"
     d="M 216.32335,55.873277 L 220.8758,55.714302 L 217.50843,58.775286 C 217.79748,57.656683 217.3061,56.494725 216.32335,55.873277 z" />
  <path
     style="font-style:normal;font-variant:normal;font-weight:normal;font-stretch:normal;letter-spacing:normal;word-spacing:normal;text-anchor:start;fill-opacity:1;stroke:#000000;stroke-width:0;stroke-linecap:butt;stroke-linejoin:miter;stroke-miterlimit:10.43299961;stroke-dasharray:none;stroke-dashoffset:0;stroke-opacity:1"
     id="path2516"
     d="M 216.32335,55.873277 L 220.8758,55.714302 L 217.50843,58.775286 C 217.79748,57.656683 217.3061,56.494725 216.32335,55.873277 z" />
  <path
     style="font-style:normal;font-variant:normal;font-weight:normal;font-stretch:normal;letter-spacing:normal;word-spacing:normal;text-anchor:start;fill-opacity:1;stroke:#0000ff;stroke-width:0.5;stroke-linecap:butt;stroke-linejoin:miter;stroke-miterlimit:10.43299961;stroke-dasharray:none;stroke-dashoffset:0;stroke-opacity:1"
     id="path2524"
     d="M 218.05761,24.974401 C 220.81799,55.367449 220.81799,55.367449 220.81799,55.367449" />
  <path
     style="font-style:normal;font-variant:normal;font-weight:normal;font-stretch:normal;letter-spacing:normal;word-spacing:normal;text-anchor:start;fill:#000000;fill-opacity:1;fill-rule:nonzero;stroke:#000000;stroke-width:0;stroke-linecap:butt;stroke-linejoin:miter;stroke-miterlimit:10.43299961;stroke-dasharray:none;stroke-dashoffset:0;stroke-opacity:1"
     id="path2526"
     d="M 222.04643,51.436441 L 220.8758,55.829919 L 218.92475,51.725487 C 219.9075,52.318027 221.16485,52.20241 222.04643,51.436441 z" />
  <path
     style="font-style:normal;font-variant:normal;font-weight:normal;font-stretch:normal;letter-spacing:normal;word-spacing:normal;text-anchor:start;fill-opacity:1;stroke:#000000;stroke-width:0;stroke-linecap:butt;stroke-linejoin:miter;stroke-miterlimit:10.43299961;stroke-dasharray:none;stroke-dashoffset:0;stroke-opacity:1"
     id="path2528"
     d="M 222.04643,51.436441 L 220.8758,55.829919 L 218.92475,51.725487 C 219.9075,52.318027 221.16485,52.20241 222.04643,51.436441 z" />
  <g
     id="content"
     transform="matrix(1.4885441,0,0,-1.4885441,-150.68436,1136.5358)"
     xml:space="preserve"
     stroke-miterlimit="10.433"
     fill-rule="even-odd"
     font-style="normal"
     font-variant="normal"
     font-weight="normal"
     font-stretch="normal"
     font-size-adjust="none"
     letter-spacing="normal"
     word-spacing="normal"
     ns0:text="$y_{k+1}^{n+1}$\n\n\n\n"
     ns0:preamble="beamerPreamble.tex"
     style="font-style:normal;font-variant:normal;font-weight:normal;font-stretch:normal;letter-spacing:normal;word-spacing:normal;text-anchor:start;fill:none;fill-opacity:1;stroke:#000000;stroke-linecap:butt;stroke-linejoin:miter;stroke-miterlimit:10.43299961;stroke-dasharray:none;stroke-dashoffset:0;stroke-opacity:1">
<path
   style="fill:#000000;stroke-width:0"
   d="M 228.27,710.92 L 228.28,710.92 L 228.28,710.93 L 228.28,710.94 L 228.28,710.94 L 228.28,710.95 L 228.29,710.97 L 228.29,710.98 L 228.29,710.99 L 228.29,710.99 L 228.3,711 L 228.3,711.01 L 228.3,711.02 L 228.3,711.03 L 228.3,711.03 L 228.31,711.04 L 228.31,711.05 L 228.31,711.05 L 228.31,711.06 L 228.31,711.06 L 228.31,711.07 L 228.31,711.08 L 228.31,711.08 L 228.31,711.09 L 228.31,711.1 L 228.31,711.11 L 228.31,711.12 L 228.31,711.13 L 228.31,711.13 L 228.31,711.14 L 228.31,711.15 C 228.31,711.33 228.18,711.42 228.02,711.42 C 227.93,711.42 227.77,711.36 227.68,711.21 C 227.66,711.16 227.58,710.85 227.54,710.67 C 227.47,710.41 227.4,710.14 227.34,709.87 L 226.89,708.08 C 226.85,707.93 226.42,707.23 225.76,707.23 C 225.26,707.23 225.15,707.67 225.15,708.04 C 225.15,708.5 225.32,709.11 225.65,709.99 C 225.81,710.4 225.85,710.51 225.85,710.71 C 225.85,711.16 225.54,711.53 225.04,711.53 C 224.09,711.53 223.72,710.08 223.72,709.99 C 223.72,709.89 223.82,709.89 223.84,709.89 C 223.94,709.89 223.95,709.91 224,710.07 C 224.27,711.01 224.67,711.31 225.01,711.31 C 225.09,711.31 225.26,711.31 225.26,710.99 C 225.26,710.74 225.16,710.48 225.09,710.29 C 224.69,709.23 224.51,708.67 224.51,708.2 C 224.51,707.31 225.14,707.01 225.72,707.01 C 226.11,707.01 226.45,707.18 226.73,707.46 C 226.6,706.94 226.48,706.46 226.08,705.93 C 225.82,705.59 225.45,705.3 224.99,705.3 C 224.85,705.3 224.4,705.33 224.23,705.72 C 224.39,705.72 224.52,705.72 224.66,705.84 C 224.76,705.93 224.86,706.06 224.86,706.25 C 224.86,706.55 224.59,706.59 224.49,706.59 C 224.26,706.59 223.93,706.43 223.93,705.95 C 223.93,705.45 224.37,705.08 224.99,705.08 C 226.01,705.08 227.04,705.99 227.32,707.11 L 228.27,710.92 z"
   id="path3297" />
<path
   style="fill:#000000;stroke-width:0"
   d="M 229.53,711.83 L 229.52,711.82 L 229.52,711.81 L 229.52,711.8 L 229.51,711.79 L 229.51,711.78 L 229.51,711.77 L 229.51,711.76 L 229.5,711.75 L 229.5,711.73 L 229.49,711.7 L 229.49,711.68 L 229.48,711.66 L 229.48,711.65 L 229.48,711.64 L 229.47,711.63 L 229.47,711.62 L 229.47,711.61 L 229.47,711.6 L 229.46,711.59 L 229.46,711.58 L 229.46,711.58 L 229.46,711.57 L 229.46,711.56 L 229.46,711.56 L 229.46,711.55 L 229.46,711.55 L 229.46,711.55 L 229.46,711.55 L 229.46,711.54 L 229.46,711.54 C 229.46,711.39 229.58,711.32 229.69,711.32 C 229.82,711.32 229.93,711.41 229.96,711.47 C 230,711.54 230.06,711.76 230.09,711.91 C 230.13,712.04 230.2,712.36 230.24,712.53 C 230.29,712.69 230.33,712.84 230.36,713 C 230.44,713.29 230.45,713.34 230.66,713.63 C 230.85,713.91 231.18,714.27 231.7,714.27 C 232.11,714.27 232.11,713.91 232.11,713.78 C 232.11,713.36 231.81,712.59 231.7,712.3 C 231.62,712.1 231.6,712.04 231.6,711.92 C 231.6,711.55 231.9,711.32 232.26,711.32 C 232.96,711.32 233.26,712.28 233.26,712.39 C 233.26,712.48 233.17,712.48 233.15,712.48 C 233.05,712.48 233.05,712.44 233.02,712.36 C 232.86,711.8 232.56,711.52 232.28,711.52 C 232.13,711.52 232.11,711.61 232.11,711.76 C 232.11,711.92 232.14,712.01 232.27,712.33 C 232.35,712.54 232.64,713.28 232.64,713.67 C 232.64,714.35 232.1,714.47 231.73,714.47 C 231.15,714.47 230.76,714.11 230.55,713.83 C 230.5,714.31 230.09,714.47 229.8,714.47 C 229.51,714.47 229.34,714.25 229.25,714.09 C 229.1,713.83 229,713.43 229,713.4 C 229,713.31 229.1,713.31 229.12,713.31 C 229.22,713.31 229.23,713.33 229.27,713.52 C 229.38,713.93 229.51,714.27 229.78,714.27 C 229.96,714.27 230.01,714.12 230.01,713.93 C 230.01,713.8 229.95,713.54 229.9,713.35 C 229.85,713.16 229.78,712.88 229.75,712.72 L 229.53,711.83 z"
   id="path3299" />
<path
   style="fill:#000000;stroke-width:0"
   d="M 236.83,712.97 L 238.96,712.97 C 239.06,712.97 239.22,712.97 239.22,713.13 C 239.22,713.31 239.06,713.31 238.96,713.31 L 236.83,713.31 L 236.83,715.45 C 236.83,715.54 236.83,715.71 236.66,715.71 C 236.49,715.71 236.49,715.55 236.49,715.45 L 236.49,713.31 L 234.35,713.31 C 234.26,713.31 234.09,713.31 234.09,713.14 C 234.09,712.97 234.25,712.97 234.35,712.97 L 236.49,712.97 L 236.49,710.83 C 236.49,710.73 236.49,710.57 236.66,710.57 C 236.83,710.57 236.83,710.73 236.83,710.83 L 236.83,712.97 z"
   id="path3301" />
<path
   style="fill:#000000;stroke-width:0"
   d="M 242.05,715.83 L 242.05,715.83 L 242.05,715.84 L 242.05,715.85 L 242.05,715.86 L 242.05,715.87 L 242.05,715.87 L 242.05,715.88 L 242.05,715.89 L 242.05,715.89 L 242.05,715.9 L 242.05,715.91 L 242.05,715.91 L 242.05,715.92 L 242.05,715.92 L 242.05,715.93 L 242.05,715.94 L 242.04,715.94 L 242.04,715.95 L 242.04,715.95 L 242.04,715.96 L 242.04,715.97 L 242.03,715.98 L 242.03,715.98 L 242.02,715.99 L 242.02,715.99 L 242.01,716 L 242.01,716 L 242,716.01 L 241.99,716.01 L 241.99,716.01 L 241.98,716.01 L 241.97,716.02 L 241.96,716.02 L 241.96,716.02 L 241.95,716.02 L 241.95,716.02 L 241.94,716.02 L 241.93,716.02 L 241.93,716.02 L 241.92,716.02 L 241.91,716.02 L 241.91,716.02 L 241.9,716.02 L 241.89,716.02 L 241.88,716.02 L 241.88,716.02 L 241.87,716.02 L 241.86,716.02 L 241.85,716.02 L 241.84,716.02 C 241.4,715.58 240.76,715.57 240.48,715.57 L 240.48,715.32 C 240.64,715.32 241.1,715.32 241.49,715.52 L 241.49,711.96 C 241.49,711.73 241.49,711.64 240.79,711.64 L 240.52,711.64 L 240.52,711.39 C 240.65,711.4 241.51,711.42 241.76,711.42 C 241.98,711.42 242.86,711.4 243.01,711.39 L 243.01,711.64 L 242.75,711.64 C 242.05,711.64 242.05,711.73 242.05,711.96 L 242.05,715.83 z"
   id="path3303" />
<path
   style="fill:#000000;stroke-width:0"
   d="M 230.5,708.75 L 230.5,708.75 L 230.5,708.75 L 230.5,708.76 L 230.5,708.76 L 230.5,708.76 L 230.5,708.76 L 230.5,708.76 L 230.5,708.76 L 230.5,708.76 L 230.5,708.77 L 230.5,708.77 L 230.51,708.78 L 230.51,708.78 L 230.51,708.78 L 230.51,708.79 L 230.51,708.79 L 230.51,708.8 L 230.51,708.8 L 230.51,708.81 L 230.52,708.82 L 230.52,708.83 L 230.52,708.83 L 230.52,708.83 L 230.52,708.84 L 230.52,708.84 L 230.52,708.85 L 230.52,708.85 L 230.52,708.85 L 230.52,708.85 L 230.52,708.86 L 230.52,708.86 L 230.53,708.86 L 230.53,708.86 L 230.53,708.86 L 230.53,708.86 L 230.53,708.86 L 230.53,708.86 L 230.53,708.86 L 230.53,708.86 L 230.53,708.86 C 230.53,708.9 230.5,708.96 230.41,708.96 C 230.27,708.96 229.7,708.91 229.52,708.89 C 229.47,708.89 229.37,708.88 229.37,708.73 C 229.37,708.64 229.47,708.64 229.55,708.64 C 229.88,708.64 229.88,708.59 229.88,708.53 C 229.88,708.48 229.87,708.44 229.86,708.38 L 228.87,704.43 C 228.84,704.3 228.84,704.29 228.84,704.28 C 228.84,704.17 228.92,704.05 229.07,704.05 C 229.26,704.05 229.35,704.19 229.4,704.35 C 229.41,704.37 229.71,705.6 229.74,705.7 C 230.23,705.65 230.63,705.49 230.63,705.13 C 230.63,705.09 230.63,705.06 230.62,704.99 C 230.59,704.88 230.59,704.85 230.59,704.77 C 230.59,704.28 230.99,704.05 231.33,704.05 C 232,704.05 232.21,705.11 232.21,705.12 C 232.21,705.21 232.12,705.21 232.1,705.21 C 232,705.21 232,705.18 231.96,705.04 C 231.88,704.74 231.69,704.25 231.35,704.25 C 231.16,704.25 231.1,704.42 231.1,704.61 C 231.1,704.73 231.1,704.74 231.15,704.92 C 231.15,704.95 231.18,705.06 231.18,705.14 C 231.18,705.76 230.34,705.86 230.05,705.88 C 230.25,706.01 230.51,706.24 230.63,706.34 C 230.99,706.67 231.34,707 231.73,707 C 231.81,707 231.9,706.98 231.96,706.91 C 231.65,706.86 231.59,706.63 231.59,706.52 C 231.59,706.37 231.71,706.26 231.87,706.26 C 232.06,706.26 232.27,706.42 232.27,706.71 C 232.27,706.94 232.1,707.2 231.73,707.2 C 231.34,707.2 230.97,706.91 230.62,706.58 C 230.32,706.3 230.09,706.09 229.81,705.97 L 230.5,708.75 z"
   id="path3305" />
<path
   style="fill:#000000;stroke-width:0"
   d="M 235.95,705.7 L 238.08,705.7 C 238.17,705.7 238.34,705.7 238.34,705.87 C 238.34,706.04 238.18,706.04 238.08,706.04 L 235.95,706.04 L 235.95,708.18 C 235.95,708.27 235.95,708.44 235.78,708.44 C 235.6,708.44 235.6,708.28 235.6,708.18 L 235.6,706.04 L 233.46,706.04 C 233.37,706.04 233.21,706.04 233.21,705.87 C 233.21,705.7 233.37,705.7 233.46,705.7 L 235.6,705.7 L 235.6,703.56 C 235.6,703.47 235.6,703.3 235.77,703.3 C 235.95,703.3 235.95,703.46 235.95,703.56 L 235.95,705.7 z"
   id="path3307" />
<path
   style="fill:#000000;stroke-width:0"
   d="M 241.17,708.56 L 241.17,708.57 L 241.17,708.58 L 241.17,708.58 L 241.17,708.59 L 241.17,708.6 L 241.17,708.61 L 241.17,708.61 L 241.17,708.62 L 241.17,708.63 L 241.17,708.63 L 241.17,708.64 L 241.17,708.65 L 241.17,708.65 L 241.17,708.66 L 241.17,708.66 L 241.17,708.67 L 241.17,708.67 L 241.17,708.68 L 241.16,708.69 L 241.16,708.69 L 241.16,708.7 L 241.16,708.71 L 241.15,708.72 L 241.15,708.72 L 241.14,708.73 L 241.14,708.73 L 241.13,708.73 L 241.12,708.74 L 241.12,708.74 L 241.11,708.74 L 241.1,708.75 L 241.09,708.75 L 241.09,708.75 L 241.08,708.75 L 241.07,708.75 L 241.07,708.75 L 241.06,708.75 L 241.06,708.75 L 241.05,708.75 L 241.04,708.75 L 241.04,708.75 L 241.03,708.75 L 241.02,708.75 L 241.02,708.75 L 241.01,708.75 L 241,708.75 L 240.99,708.75 L 240.98,708.75 L 240.97,708.75 L 240.96,708.75 C 240.52,708.31 239.88,708.31 239.6,708.31 L 239.6,708.06 C 239.76,708.06 240.23,708.06 240.61,708.25 L 240.61,704.69 C 240.61,704.46 240.61,704.37 239.91,704.37 L 239.65,704.37 L 239.65,704.12 C 239.77,704.13 240.63,704.15 240.89,704.15 C 241.1,704.15 241.98,704.13 242.14,704.12 L 242.14,704.37 L 241.87,704.37 C 241.17,704.37 241.17,704.46 241.17,704.69 L 241.17,708.56 z"
   id="path3309" />
</g>  <g
     style="font-style:normal;font-variant:normal;font-weight:normal;font-stretch:normal;letter-spacing:normal;word-spacing:normal;text-anchor:start;fill:none;fill-opacity:1;stroke:#000000;stroke-linecap:butt;stroke-linejoin:miter;stroke-miterlimit:10.43299961;stroke-dasharray:none;stroke-dashoffset:0;stroke-opacity:1"
     ns0:preamble="beamerPreamble.tex"
     ns0:text="$\\Delta u_k$\n\n"
     word-spacing="normal"
     letter-spacing="normal"
     font-size-adjust="none"
     font-stretch="normal"
     font-weight="normal"
     font-variant="normal"
     font-style="normal"
     fill-rule="even-odd"
     stroke-miterlimit="10.433"
     xml:space="preserve"
     transform="matrix(1.4180201,0,0,-1.4180201,-94.683753,1041.9431)"
     id="g3485">
<path
   style="fill:#000000;stroke-width:0"
   id="path3487"
   d="M 227.84,714.08 L 227.83,714.09 L 227.82,714.1 L 227.82,714.11 L 227.81,714.12 L 227.81,714.13 L 227.8,714.14 L 227.8,714.15 L 227.79,714.16 L 227.78,714.17 L 227.78,714.18 L 227.77,714.18 L 227.77,714.19 L 227.76,714.2 L 227.76,714.2 L 227.75,714.21 L 227.74,714.21 L 227.74,714.22 L 227.73,714.22 L 227.72,714.23 L 227.71,714.23 L 227.71,714.24 L 227.7,714.24 L 227.69,714.24 L 227.68,714.25 L 227.67,714.25 L 227.66,714.25 L 227.65,714.25 L 227.63,714.25 L 227.62,714.25 L 227.61,714.26 L 227.59,714.26 L 227.58,714.26 C 227.41,714.26 227.39,714.21 227.32,714.08 L 227.26,713.26 L 229.94,707.88 L 224.57,707.88 L 227.26,713.26 L 227.32,714.08 L 223.95,707.32 C 223.9,707.23 223.9,707.21 223.9,707.2 C 223.9,707.12 223.96,707.12 224.12,707.12 L 231.03,707.12 C 231.19,707.12 231.25,707.12 231.25,707.2 C 231.25,707.21 231.25,707.23 231.2,707.32 L 227.84,714.08 z" />
<path
   style="fill:#000000;stroke-width:0"
   id="path3489"
   d="M 235.22,707.68 L 235.23,707.64 L 235.25,707.61 L 235.26,707.57 L 235.27,707.53 L 235.29,707.5 L 235.31,707.47 L 235.33,707.43 L 235.35,707.4 L 235.37,707.37 L 235.39,707.34 L 235.41,707.32 L 235.44,707.29 L 235.46,707.26 L 235.49,707.24 L 235.52,707.22 L 235.55,707.19 L 235.57,707.17 L 235.61,707.15 L 235.64,707.13 L 235.67,707.12 L 235.7,707.1 L 235.74,707.09 L 235.77,707.07 L 235.8,707.06 L 235.84,707.05 L 235.88,707.04 L 235.91,707.03 L 235.95,707.02 L 235.99,707.02 L 236.03,707.02 L 236.07,707.01 L 236.11,707.01 C 236.46,707.01 236.69,707.24 236.85,707.56 C 237.01,707.92 237.15,708.53 237.15,708.55 C 237.15,708.65 237.05,708.65 237.02,708.65 C 236.93,708.65 236.92,708.61 236.89,708.47 C 236.75,707.91 236.56,707.23 236.14,707.23 C 235.93,707.23 235.83,707.36 235.83,707.69 C 235.83,707.91 235.95,708.38 236.03,708.73 C 236.12,709.09 236.22,709.44 236.31,709.8 C 236.34,709.95 236.44,710.33 236.48,710.48 C 236.53,710.71 236.63,711.09 236.63,711.15 C 236.63,711.33 236.49,711.42 236.34,711.42 C 236.29,711.42 236.03,711.41 235.95,711.07 C 235.76,710.34 235.32,708.6 235.2,708.07 C 235.19,708.03 234.79,707.23 234.07,707.23 C 233.55,707.23 233.45,707.68 233.45,708.05 C 233.45,708.61 233.73,709.39 233.99,710.08 C 234.11,710.38 234.16,710.52 234.16,710.71 C 234.16,711.16 233.84,711.53 233.34,711.53 C 232.39,711.53 232.02,710.08 232.02,709.99 C 232.02,709.89 232.12,709.89 232.14,709.89 C 232.24,709.89 232.25,709.91 232.3,710.07 C 232.55,710.94 232.93,711.31 233.31,711.31 C 233.4,711.31 233.56,711.3 233.56,710.98 C 233.56,710.74 233.45,710.45 233.39,710.3 C 233.02,709.31 232.81,708.7 232.81,708.21 C 232.81,707.26 233.5,707.01 234.04,707.01 C 234.69,707.01 235.05,707.46 235.22,707.68 z" />
<path
   style="fill:#000000;stroke-width:0"
   id="path3491"
   d="M 239.62,710.26 L 239.62,710.26 L 239.62,710.26 L 239.62,710.26 L 239.62,710.26 L 239.62,710.27 L 239.62,710.27 L 239.62,710.27 L 239.62,710.27 L 239.62,710.27 L 239.62,710.28 L 239.62,710.28 L 239.63,710.28 L 239.63,710.29 L 239.63,710.29 L 239.63,710.3 L 239.63,710.3 L 239.63,710.31 L 239.63,710.31 L 239.63,710.32 L 239.64,710.33 L 239.64,710.33 L 239.64,710.34 L 239.64,710.34 L 239.64,710.35 L 239.64,710.35 L 239.64,710.35 L 239.64,710.36 L 239.64,710.36 L 239.64,710.36 L 239.64,710.36 L 239.64,710.36 L 239.65,710.37 L 239.65,710.37 L 239.65,710.37 L 239.65,710.37 L 239.65,710.37 L 239.65,710.37 L 239.65,710.37 L 239.65,710.37 L 239.65,710.37 C 239.65,710.41 239.62,710.47 239.53,710.47 C 239.4,710.47 238.82,710.41 238.64,710.4 C 238.59,710.39 238.49,710.39 238.49,710.24 C 238.49,710.14 238.59,710.14 238.67,710.14 C 239,710.14 239,710.09 239,710.04 C 239,709.99 238.99,709.95 238.98,709.88 L 237.99,705.94 C 237.96,705.81 237.96,705.8 237.96,705.78 C 237.96,705.68 238.04,705.56 238.2,705.56 C 238.38,705.56 238.47,705.7 238.52,705.85 C 238.53,705.88 238.83,707.11 238.86,707.21 C 239.35,707.16 239.75,707 239.75,706.63 C 239.75,706.6 239.75,706.57 239.74,706.49 C 239.71,706.39 239.71,706.35 239.71,706.28 C 239.71,705.78 240.11,705.56 240.45,705.56 C 241.12,705.56 241.33,706.62 241.33,706.63 C 241.33,706.72 241.24,706.72 241.22,706.72 C 241.12,706.72 241.12,706.68 241.08,706.55 C 241,706.25 240.81,705.76 240.47,705.76 C 240.28,705.76 240.23,705.93 240.23,706.12 C 240.23,706.24 240.23,706.25 240.27,706.43 C 240.27,706.45 240.3,706.57 240.3,706.65 C 240.3,707.27 239.46,707.37 239.17,707.39 C 239.37,707.51 239.63,707.74 239.75,707.85 C 240.11,708.18 240.46,708.51 240.85,708.51 C 240.93,708.51 241.02,708.49 241.07,708.42 C 240.77,708.37 240.71,708.13 240.71,708.03 C 240.71,707.88 240.83,707.77 240.99,707.77 C 241.18,707.77 241.39,707.92 241.39,708.22 C 241.39,708.45 241.22,708.71 240.85,708.71 C 240.46,708.71 240.09,708.42 239.74,708.09 C 239.44,707.81 239.21,707.6 238.93,707.48 L 239.62,710.26 z" />
</g>  <g
     id="g3665"
     transform="matrix(1.4180201,0,0,-1.4180201,-128.94578,1015.3308)"
     xml:space="preserve"
     stroke-miterlimit="10.433"
     fill-rule="even-odd"
     font-style="normal"
     font-variant="normal"
     font-weight="normal"
     font-stretch="normal"
     font-size-adjust="none"
     letter-spacing="normal"
     word-spacing="normal"
     ns0:text="$u^{n+1}_k$\n\n\n"
     ns0:preamble="beamerPreamble.tex"
     style="font-style:normal;font-variant:normal;font-weight:normal;font-stretch:normal;letter-spacing:normal;word-spacing:normal;text-anchor:start;fill:none;fill-opacity:1;stroke:#000000;stroke-linecap:butt;stroke-linejoin:miter;stroke-miterlimit:10.43299961;stroke-dasharray:none;stroke-dashoffset:0;stroke-opacity:1">
<path
   style="fill:#000000;stroke-width:0"
   d="M 226.92,707.68 L 226.93,707.64 L 226.94,707.61 L 226.96,707.57 L 226.97,707.53 L 226.99,707.5 L 227.01,707.47 L 227.02,707.43 L 227.04,707.4 L 227.06,707.37 L 227.09,707.34 L 227.11,707.32 L 227.14,707.29 L 227.16,707.26 L 227.19,707.24 L 227.21,707.22 L 227.24,707.19 L 227.27,707.17 L 227.3,707.15 L 227.33,707.13 L 227.37,707.12 L 227.4,707.1 L 227.43,707.09 L 227.47,707.07 L 227.5,707.06 L 227.54,707.05 L 227.57,707.04 L 227.61,707.03 L 227.65,707.02 L 227.69,707.02 L 227.73,707.02 L 227.77,707.01 L 227.81,707.01 C 228.15,707.01 228.38,707.24 228.54,707.56 C 228.71,707.92 228.84,708.53 228.84,708.55 C 228.84,708.65 228.75,708.65 228.72,708.65 C 228.62,708.65 228.61,708.61 228.58,708.47 C 228.44,707.91 228.25,707.23 227.84,707.23 C 227.63,707.23 227.53,707.36 227.53,707.69 C 227.53,707.91 227.65,708.38 227.73,708.73 C 227.82,709.09 227.92,709.44 228.01,709.8 C 228.04,709.95 228.13,710.33 228.18,710.48 C 228.23,710.71 228.32,711.09 228.32,711.15 C 228.32,711.33 228.18,711.42 228.04,711.42 C 227.99,711.42 227.73,711.41 227.65,711.07 C 227.46,710.34 227.02,708.6 226.9,708.07 C 226.89,708.03 226.49,707.23 225.76,707.23 C 225.25,707.23 225.15,707.68 225.15,708.05 C 225.15,708.61 225.43,709.39 225.68,710.08 C 225.8,710.38 225.85,710.52 225.85,710.71 C 225.85,711.16 225.54,711.53 225.04,711.53 C 224.09,711.53 223.72,710.08 223.72,709.99 C 223.72,709.89 223.82,709.89 223.84,709.89 C 223.94,709.89 223.95,709.91 224,710.07 C 224.25,710.94 224.63,711.31 225.01,711.31 C 225.1,711.31 225.26,711.3 225.26,710.98 C 225.26,710.74 225.15,710.45 225.09,710.3 C 224.72,709.31 224.51,708.7 224.51,708.21 C 224.51,707.26 225.2,707.01 225.73,707.01 C 226.39,707.01 226.75,707.46 226.92,707.68 z"
   id="path3667" />
<path
   style="fill:#000000;stroke-width:0"
   d="M 229.98,711.83 L 229.98,711.82 L 229.98,711.81 L 229.97,711.8 L 229.97,711.79 L 229.97,711.78 L 229.97,711.77 L 229.96,711.76 L 229.96,711.75 L 229.95,711.73 L 229.95,711.7 L 229.94,711.68 L 229.94,711.66 L 229.94,711.65 L 229.93,711.64 L 229.93,711.63 L 229.93,711.62 L 229.93,711.61 L 229.92,711.6 L 229.92,711.59 L 229.92,711.58 L 229.92,711.58 L 229.92,711.57 L 229.92,711.56 L 229.92,711.56 L 229.92,711.55 L 229.91,711.55 L 229.91,711.55 L 229.91,711.55 L 229.91,711.54 L 229.91,711.54 C 229.91,711.39 230.04,711.32 230.15,711.32 C 230.28,711.32 230.39,711.41 230.42,711.47 C 230.46,711.54 230.51,711.76 230.55,711.91 C 230.58,712.04 230.66,712.36 230.7,712.53 C 230.74,712.69 230.79,712.84 230.82,713 C 230.9,713.29 230.91,713.34 231.11,713.63 C 231.31,713.91 231.64,714.27 232.16,714.27 C 232.56,714.27 232.57,713.91 232.57,713.78 C 232.57,713.36 232.27,712.59 232.16,712.3 C 232.08,712.1 232.05,712.04 232.05,711.92 C 232.05,711.55 232.36,711.32 232.72,711.32 C 233.41,711.32 233.72,712.28 233.72,712.39 C 233.72,712.48 233.63,712.48 233.61,712.48 C 233.51,712.48 233.51,712.44 233.48,712.36 C 233.32,711.8 233.02,711.52 232.74,711.52 C 232.59,711.52 232.56,711.61 232.56,711.76 C 232.56,711.92 232.6,712.01 232.72,712.33 C 232.81,712.54 233.09,713.28 233.09,713.67 C 233.09,714.35 232.56,714.47 232.19,714.47 C 231.61,714.47 231.22,714.11 231.01,713.83 C 230.96,714.31 230.55,714.47 230.26,714.47 C 229.96,714.47 229.8,714.25 229.71,714.09 C 229.56,713.83 229.46,713.43 229.46,713.4 C 229.46,713.31 229.56,713.31 229.58,713.31 C 229.68,713.31 229.68,713.33 229.73,713.52 C 229.84,713.93 229.97,714.27 230.24,714.27 C 230.42,714.27 230.47,714.12 230.47,713.93 C 230.47,713.8 230.41,713.54 230.36,713.35 C 230.31,713.16 230.24,712.88 230.21,712.72 L 229.98,711.83 z"
   id="path3669" />
<path
   style="fill:#000000;stroke-width:0"
   d="M 237.29,712.97 L 239.42,712.97 C 239.51,712.97 239.68,712.97 239.68,713.13 C 239.68,713.31 239.52,713.31 239.42,713.31 L 237.29,713.31 L 237.29,715.45 C 237.29,715.54 237.29,715.71 237.12,715.71 C 236.95,715.71 236.95,715.55 236.95,715.45 L 236.95,713.31 L 234.81,713.31 C 234.72,713.31 234.55,713.31 234.55,713.14 C 234.55,712.97 234.71,712.97 234.81,712.97 L 236.95,712.97 L 236.95,710.83 C 236.95,710.73 236.95,710.57 237.12,710.57 C 237.29,710.57 237.29,710.73 237.29,710.83 L 237.29,712.97 z"
   id="path3671" />
<path
   style="fill:#000000;stroke-width:0"
   d="M 242.51,715.83 L 242.51,715.83 L 242.51,715.84 L 242.51,715.85 L 242.51,715.86 L 242.51,715.87 L 242.51,715.87 L 242.51,715.88 L 242.51,715.89 L 242.51,715.89 L 242.51,715.9 L 242.51,715.91 L 242.51,715.91 L 242.51,715.92 L 242.51,715.92 L 242.5,715.93 L 242.5,715.94 L 242.5,715.94 L 242.5,715.95 L 242.5,715.95 L 242.5,715.96 L 242.49,715.97 L 242.49,715.98 L 242.49,715.98 L 242.48,715.99 L 242.48,715.99 L 242.47,716 L 242.47,716 L 242.46,716.01 L 242.45,716.01 L 242.44,716.01 L 242.43,716.01 L 242.43,716.02 L 242.42,716.02 L 242.41,716.02 L 242.41,716.02 L 242.4,716.02 L 242.4,716.02 L 242.39,716.02 L 242.39,716.02 L 242.38,716.02 L 242.37,716.02 L 242.36,716.02 L 242.36,716.02 L 242.35,716.02 L 242.34,716.02 L 242.33,716.02 L 242.33,716.02 L 242.32,716.02 L 242.31,716.02 L 242.3,716.02 C 241.85,715.58 241.22,715.57 240.93,715.57 L 240.93,715.32 C 241.1,715.32 241.56,715.32 241.94,715.52 L 241.94,711.96 C 241.94,711.73 241.94,711.64 241.25,711.64 L 240.98,711.64 L 240.98,711.39 C 241.11,711.4 241.96,711.42 242.22,711.42 C 242.44,711.42 243.32,711.4 243.47,711.39 L 243.47,711.64 L 243.21,711.64 C 242.51,711.64 242.51,711.73 242.51,711.96 L 242.51,715.83 z"
   id="path3673" />
<path
   style="fill:#000000;stroke-width:0"
   d="M 231.32,708.75 L 231.32,708.75 L 231.32,708.75 L 231.32,708.76 L 231.32,708.76 L 231.32,708.76 L 231.32,708.76 L 231.32,708.76 L 231.32,708.76 L 231.32,708.76 L 231.32,708.77 L 231.32,708.77 L 231.32,708.78 L 231.32,708.78 L 231.32,708.78 L 231.33,708.79 L 231.33,708.79 L 231.33,708.8 L 231.33,708.8 L 231.33,708.81 L 231.33,708.82 L 231.33,708.83 L 231.34,708.83 L 231.34,708.83 L 231.34,708.84 L 231.34,708.84 L 231.34,708.85 L 231.34,708.85 L 231.34,708.85 L 231.34,708.85 L 231.34,708.86 L 231.34,708.86 L 231.34,708.86 L 231.34,708.86 L 231.34,708.86 L 231.34,708.86 L 231.34,708.86 L 231.34,708.86 L 231.34,708.86 L 231.34,708.86 L 231.34,708.86 C 231.34,708.9 231.32,708.96 231.23,708.96 C 231.09,708.96 230.51,708.91 230.34,708.89 C 230.28,708.89 230.19,708.88 230.19,708.73 C 230.19,708.64 230.28,708.64 230.37,708.64 C 230.7,708.64 230.7,708.59 230.7,708.53 C 230.7,708.48 230.69,708.44 230.67,708.38 L 229.69,704.43 C 229.66,704.3 229.66,704.29 229.66,704.28 C 229.66,704.17 229.74,704.05 229.89,704.05 C 230.08,704.05 230.17,704.19 230.21,704.35 C 230.23,704.37 230.53,705.6 230.55,705.7 C 231.05,705.65 231.45,705.49 231.45,705.13 C 231.45,705.09 231.45,705.06 231.43,704.99 C 231.41,704.88 231.41,704.85 231.41,704.77 C 231.41,704.28 231.81,704.05 232.15,704.05 C 232.82,704.05 233.03,705.11 233.03,705.12 C 233.03,705.21 232.94,705.21 232.92,705.21 C 232.82,705.21 232.82,705.18 232.78,705.04 C 232.7,704.74 232.51,704.25 232.17,704.25 C 231.98,704.25 231.92,704.42 231.92,704.61 C 231.92,704.73 231.92,704.74 231.96,704.92 C 231.97,704.95 232,705.06 232,705.14 C 232,705.76 231.16,705.86 230.87,705.88 C 231.07,706.01 231.33,706.24 231.45,706.34 C 231.8,706.67 232.15,707 232.54,707 C 232.63,707 232.72,706.98 232.77,706.91 C 232.47,706.86 232.41,706.63 232.41,706.52 C 232.41,706.37 232.53,706.26 232.69,706.26 C 232.88,706.26 233.09,706.42 233.09,706.71 C 233.09,706.94 232.92,707.2 232.55,707.2 C 232.15,707.2 231.79,706.91 231.43,706.58 C 231.14,706.3 230.91,706.09 230.62,705.97 L 231.32,708.75 z"
   id="path3675" />
</g>  <g
     id="g4037"
     transform="matrix(1.4180201,0,0,-1.4180201,-189.11766,1045.0954)"
     xml:space="preserve"
     stroke-miterlimit="10.433"
     fill-rule="even-odd"
     font-style="normal"
     font-variant="normal"
     font-weight="normal"
     font-stretch="normal"
     font-size-adjust="none"
     letter-spacing="normal"
     word-spacing="normal"
     ns0:text="$x$\n\n\n\n\n"
     ns0:preamble="beamerPreamble.tex"
     style="font-style:normal;font-variant:normal;font-weight:normal;font-stretch:normal;letter-spacing:normal;word-spacing:normal;text-anchor:start;fill:none;fill-opacity:1;stroke:#000000;stroke-linecap:butt;stroke-linejoin:miter;stroke-miterlimit:10.43299961;stroke-dasharray:none;stroke-dashoffset:0;stroke-opacity:1">
<path
   style="fill:#000000;stroke-width:0"
   d="M 226.76,710.13 L 226.77,710.16 L 226.77,710.19 L 226.78,710.22 L 226.79,710.26 L 226.8,710.29 L 226.81,710.34 L 226.83,710.38 L 226.84,710.42 L 226.86,710.47 L 226.87,710.52 L 226.89,710.57 L 226.91,710.62 L 226.94,710.67 L 226.96,710.72 L 226.99,710.77 L 227.01,710.82 L 227.04,710.86 L 227.07,710.91 L 227.11,710.96 L 227.14,711 L 227.18,711.05 L 227.22,711.09 L 227.26,711.12 L 227.31,711.16 L 227.35,711.19 L 227.4,711.22 L 227.43,711.23 L 227.45,711.25 L 227.48,711.26 L 227.51,711.27 L 227.53,711.28 L 227.56,711.28 L 227.59,711.29 L 227.62,711.3 L 227.65,711.3 L 227.68,711.3 L 227.71,711.31 L 227.75,711.31 C 227.8,711.31 228.04,711.31 228.24,711.18 C 227.96,711.13 227.77,710.88 227.77,710.64 C 227.77,710.48 227.88,710.29 228.15,710.29 C 228.36,710.29 228.68,710.47 228.68,710.87 C 228.68,711.39 228.1,711.53 227.76,711.53 C 227.18,711.53 226.83,711 226.71,710.77 C 226.46,711.43 225.92,711.53 225.63,711.53 C 224.6,711.53 224.03,710.24 224.03,709.99 C 224.03,709.89 224.13,709.89 224.15,709.89 C 224.23,709.89 224.26,709.91 224.28,710 C 224.62,711.06 225.28,711.31 225.61,711.31 C 225.8,711.31 226.15,711.22 226.15,710.64 C 226.15,710.33 225.98,709.66 225.61,708.27 C 225.46,707.65 225.11,707.23 224.67,707.23 C 224.61,707.23 224.38,707.23 224.17,707.36 C 224.42,707.41 224.64,707.62 224.64,707.9 C 224.64,708.17 224.42,708.25 224.27,708.25 C 223.97,708.25 223.72,707.99 223.72,707.67 C 223.72,707.21 224.22,707.01 224.66,707.01 C 225.32,707.01 225.67,707.71 225.7,707.77 C 225.82,707.4 226.18,707.01 226.78,707.01 C 227.81,707.01 228.37,708.3 228.37,708.55 C 228.37,708.65 228.28,708.65 228.25,708.65 C 228.16,708.65 228.15,708.61 228.12,708.54 C 227.8,707.47 227.12,707.23 226.8,707.23 C 226.41,707.23 226.25,707.55 226.25,707.89 C 226.25,708.11 226.31,708.33 226.42,708.77 L 226.76,710.13 z"
   id="path4039" />
</g>  <polyline
     style="font-style:normal;font-variant:normal;font-weight:normal;font-stretch:normal;letter-spacing:normal;word-spacing:normal;text-anchor:start;fill-opacity:1;stroke:#000000;stroke-width:0.34596727;stroke-linecap:butt;stroke-linejoin:miter;stroke-miterlimit:10.43299961;stroke-dasharray:none;stroke-dashoffset:0;stroke-opacity:1"
     id="polyline2410"
     points="15.242,73.984 33.508,134.88 33.508,134.88 33.508,134.88 "
     transform="matrix(1.4452234,0,0,-1.4452234,-3.2075587,202.07206)" />
  <path
     style="font-style:normal;font-variant:normal;font-weight:normal;font-stretch:normal;letter-spacing:normal;word-spacing:normal;text-anchor:start;fill-opacity:1;stroke:#000000;stroke-width:0.5;stroke-linecap:butt;stroke-linejoin:miter;stroke-miterlimit:10.43299961;stroke-dasharray:none;stroke-dashoffset:0;stroke-opacity:1"
     id="path2416"
     d="M 45.382307,6.0419735 C 112.03167,24.425217 112.03167,24.425217 112.03167,24.425217" />
  <path
     style="font-style:normal;font-variant:normal;font-weight:normal;font-stretch:normal;letter-spacing:normal;word-spacing:normal;text-anchor:start;fill:#000000;fill-opacity:1;fill-rule:nonzero;stroke:#000000;stroke-width:0;stroke-linecap:butt;stroke-linejoin:miter;stroke-miterlimit:10.43299961;stroke-dasharray:none;stroke-dashoffset:0;stroke-opacity:1"
     id="path2418"
     d="M 108.79149,21.896076 L 112.48981,24.540834 L 107.95614,24.931045 C 108.86519,24.208434 109.19182,22.994446 108.79149,21.896076 z" />
  <path
     style="font-style:normal;font-variant:normal;font-weight:normal;font-stretch:normal;letter-spacing:normal;word-spacing:normal;text-anchor:start;fill-opacity:1;stroke:#000000;stroke-width:0;stroke-linecap:butt;stroke-linejoin:miter;stroke-miterlimit:10.43299961;stroke-dasharray:none;stroke-dashoffset:0;stroke-opacity:1"
     id="path2420"
     d="M 108.79149,21.896076 L 112.48981,24.540834 L 107.95614,24.931045 C 108.86519,24.208434 109.19182,22.994446 108.79149,21.896076 z" />
  <path
     style="font-style:normal;font-variant:normal;font-weight:normal;font-stretch:normal;letter-spacing:normal;word-spacing:normal;text-anchor:start;fill-opacity:1;stroke:#000000;stroke-width:0.5;stroke-linecap:butt;stroke-linejoin:miter;stroke-miterlimit:10.43299961;stroke-dasharray:none;stroke-dashoffset:0;stroke-opacity:1"
     id="path2422"
     d="M 18.793087,95.046056 C 112.33661,25.248994 112.33661,25.248994 112.33661,25.248994" />
  <path
     style="font-style:normal;font-variant:normal;font-weight:normal;font-stretch:normal;letter-spacing:normal;word-spacing:normal;text-anchor:start;fill:#000000;fill-opacity:1;fill-rule:nonzero;stroke:#000000;stroke-width:0;stroke-linecap:butt;stroke-linejoin:miter;stroke-miterlimit:10.43299961;stroke-dasharray:none;stroke-dashoffset:0;stroke-opacity:1"
     id="path2424"
     d="M 108.35647,26.26065 L 112.71527,24.974401 L 110.23093,28.775339 C 110.22514,27.619161 109.46351,26.607503 108.35647,26.26065 z" />
  <path
     style="font-style:normal;font-variant:normal;font-weight:normal;font-stretch:normal;letter-spacing:normal;word-spacing:normal;text-anchor:start;fill-opacity:1;stroke:#000000;stroke-width:0;stroke-linecap:butt;stroke-linejoin:miter;stroke-miterlimit:10.43299961;stroke-dasharray:none;stroke-dashoffset:0;stroke-opacity:1"
     id="path2426"
     d="M 108.35647,26.26065 L 112.71527,24.974401 L 110.23093,28.775339 C 110.22514,27.619161 109.46351,26.607503 108.35647,26.26065 z" />
  <path
     style="font-style:normal;font-variant:normal;font-weight:normal;font-stretch:normal;letter-spacing:normal;word-spacing:normal;text-anchor:start;fill:none;fill-opacity:1;stroke:#000000;stroke-width:0.56785828;stroke-linecap:butt;stroke-linejoin:miter;stroke-miterlimit:10.43299961;stroke-dasharray:none;stroke-dashoffset:0;stroke-opacity:1"
     id="path2428"
     d="M 18.746844,69.647702 L 18.736721,70.822671 L 18.730944,71.957174 L 18.719381,73.056985 L 18.707819,74.125004 L 18.702042,75.152559 L 18.690478,76.145427 L 18.684693,77.105057 L 18.674579,78.037227 L 18.668801,78.928925 L 18.663016,79.79317 L 18.651452,80.628508 L 18.645676,81.429166 L 18.63989,82.198027 L 18.634113,82.942318 L 18.628328,83.653363 L 18.623998,84.336949 L 18.618213,84.991641 L 18.612436,85.624652 L 18.606651,86.22297 L 18.600873,86.798166 L 18.595087,87.351688 L 18.58931,87.876302 L 18.583533,88.373464 L 18.583533,88.853282 L 18.577747,89.305634 L 18.571971,89.739201 L 18.571971,90.146757 L 18.566185,90.535522 L 18.566185,90.89682 L 18.560408,91.246574 L 18.55607,91.574634 L 18.55607,91.879579 L 18.550293,92.438873 L 18.544507,92.928814 L 18.544507,93.352258 L 18.53873,93.713563 L 18.53873,94.024287 L 18.532945,94.27865 L 18.532945,94.488203 L 18.532945,94.657291 L 18.532945,94.787362 L 18.527168,94.888532 L 18.527168,94.956464 L 18.527168,95.007038 L 18.527168,95.046056 L 18.527168,95.05762 C 21.180598,95.277296 42.655173,95.05762 42.655173,95.05762" />
  <polygon
     style="font-style:normal;font-variant:normal;font-weight:normal;font-stretch:normal;letter-spacing:normal;word-spacing:normal;text-anchor:start;fill:#000000;fill-opacity:1;fill-rule:nonzero;stroke:#000000;stroke-width:0;stroke-linecap:butt;stroke-linejoin:miter;stroke-miterlimit:10.43299961;stroke-dasharray:none;stroke-dashoffset:0;stroke-opacity:1"
     id="polygon2430"
     points="15.156,87.695 16.715,86.113 15.191,91.625 13.574,86.141 15.156,87.695 "
     transform="matrix(1.4452234,0,0,-1.4452234,-3.2075587,202.07206)" />
  <polygon
     style="font-style:normal;font-variant:normal;font-weight:normal;font-stretch:normal;letter-spacing:normal;word-spacing:normal;text-anchor:start;fill-opacity:1;stroke:#000000;stroke-width:0;stroke-linecap:butt;stroke-linejoin:miter;stroke-miterlimit:10.43299961;stroke-dasharray:none;stroke-dashoffset:0;stroke-opacity:1"
     id="polygon2432"
     points="15.156,87.695 16.715,86.113 15.191,91.625 13.574,86.141 15.156,87.695 "
     transform="matrix(1.4452234,0,0,-1.4452234,-3.2075587,202.07206)" />
  <polygon
     style="font-style:normal;font-variant:normal;font-weight:normal;font-stretch:normal;letter-spacing:normal;word-spacing:normal;text-anchor:start;fill-opacity:1;stroke:#000000;stroke-width:0.39291999;stroke-linecap:butt;stroke-linejoin:miter;stroke-miterlimit:10.43299961;stroke-dasharray:none;stroke-dashoffset:0;stroke-opacity:1"
     id="polygon2434"
     points="15.156,87.695 16.715,86.113 15.191,91.625 13.574,86.141 15.156,87.695 "
     transform="matrix(1.4452234,0,0,-1.4452234,-3.2075587,202.07206)" />
  <path
     style="font-style:normal;font-variant:normal;font-weight:normal;font-stretch:normal;letter-spacing:normal;word-spacing:normal;text-anchor:start;fill:#000000;fill-opacity:1;fill-rule:nonzero;stroke:#000000;stroke-width:0;stroke-linecap:butt;stroke-linejoin:miter;stroke-miterlimit:10.43299961;stroke-dasharray:none;stroke-dashoffset:0;stroke-opacity:1"
     id="path2436"
     d="M 36.55922,92.59641 L 43.406688,95.040277 L 36.609799,97.615669 C 37.682159,96.124199 37.659032,94.09799 36.55922,92.59641 z" />
  <g
     id="g2685"
     transform="matrix(1.4180201,0,0,-1.4180201,-317.4238,1096.583)"
     xml:space="preserve"
     stroke-miterlimit="10.433"
     fill-rule="even-odd"
     font-style="normal"
     font-variant="normal"
     font-weight="normal"
     font-stretch="normal"
     font-size-adjust="none"
     letter-spacing="normal"
     word-spacing="normal"
     ns0:text="a)\n\n\n\n\n\n"
     ns0:preamble="beamerPreamble.tex"
     style="font-style:normal;font-variant:normal;font-weight:normal;font-stretch:normal;letter-spacing:normal;word-spacing:normal;text-anchor:start;fill:none;fill-opacity:1;stroke:#000000;stroke-linecap:butt;stroke-linejoin:miter;stroke-miterlimit:10.43299961;stroke-dasharray:none;stroke-dashoffset:0;stroke-opacity:1">
<path
   d="M 226.75,707.88 L 226.75,707.84 L 226.76,707.81 L 226.77,707.77 L 226.78,707.73 L 226.79,707.69 L 226.8,707.66 L 226.81,707.62 L 226.82,707.58 L 226.84,707.55 L 226.85,707.51 L 226.87,707.48 L 226.89,707.45 L 226.91,707.41 L 226.93,707.38 L 226.95,707.35 L 226.98,707.32 L 227,707.29 L 227.03,707.27 L 227.06,707.24 L 227.09,707.22 L 227.12,707.19 L 227.15,707.17 L 227.18,707.15 L 227.21,707.13 L 227.25,707.12 L 227.28,707.1 L 227.32,707.09 L 227.36,707.08 L 227.4,707.07 L 227.44,707.07 L 227.48,707.06 L 227.53,707.06 C 227.74,707.06 228.34,707.2 228.34,708.01 L 228.34,708.57 L 228.1,708.57 L 228.1,708.01 C 228.1,707.43 227.85,707.37 227.74,707.37 C 227.41,707.37 227.37,707.82 227.37,707.87 L 227.37,709.86 C 227.37,710.28 227.37,710.67 227.01,711.04 C 226.62,711.43 226.12,711.59 225.64,711.59 C 224.83,711.59 224.14,711.12 224.14,710.46 C 224.14,710.16 224.34,709.99 224.6,709.99 C 224.88,709.99 225.06,710.19 225.06,710.45 C 225.06,710.57 225.01,710.9 224.55,710.91 C 224.82,711.26 225.3,711.37 225.62,711.37 C 226.11,711.37 226.68,710.98 226.68,710.09 L 226.68,709.72 L 226.68,709.51 L 226.68,708.52 C 226.68,707.57 225.96,707.23 225.51,707.23 C 225.03,707.23 224.62,707.58 224.62,708.08 C 224.62,708.63 225.04,709.45 226.68,709.51 L 226.68,709.51 L 226.68,709.72 C 226.17,709.69 225.48,709.66 224.85,709.36 C 224.1,709.03 223.85,708.51 223.85,708.07 C 223.85,707.26 224.82,707.01 225.45,707.01 C 226.1,707.01 226.56,707.41 226.75,707.88 z"
   id="path2687"
   style="fill:#000000;stroke-width:0" />
<path
   d="M 231.29,709.61 L 231.29,709.69 L 231.29,709.76 L 231.29,709.84 L 231.29,709.92 L 231.28,710.09 L 231.27,710.27 L 231.25,710.45 L 231.23,710.64 L 231.2,710.84 L 231.17,711.04 L 231.13,711.24 L 231.08,711.45 L 231.03,711.66 L 230.97,711.87 L 230.9,712.08 L 230.82,712.3 L 230.78,712.4 L 230.73,712.51 L 230.68,712.62 L 230.63,712.72 C 230.04,713.95 229.18,714.59 229.08,714.59 C 229.02,714.59 228.98,714.55 228.98,714.49 C 228.98,714.47 228.98,714.45 229.17,714.27 C 230.15,713.28 230.71,711.7 230.71,709.61 C 230.71,707.91 230.35,706.16 229.11,704.9 C 228.98,704.78 228.98,704.76 228.98,704.73 C 228.98,704.67 229.02,704.63 229.08,704.63 C 229.18,704.63 230.08,705.31 230.66,706.58 C 231.17,707.67 231.29,708.78 231.29,709.61 z"
   id="path2689"
   style="fill:#000000;stroke-width:0" />
</g>  <path
     style="font-style:normal;font-variant:normal;font-weight:normal;font-stretch:normal;letter-spacing:normal;word-spacing:normal;text-anchor:start;fill-opacity:1;stroke:#000000;stroke-width:0;stroke-linecap:butt;stroke-linejoin:miter;stroke-miterlimit:10.43299961;stroke-dasharray:none;stroke-dashoffset:0;stroke-opacity:1"
     id="path2438"
     d="M 36.55922,92.59641 L 43.406688,95.040277 L 36.609799,97.615669 C 37.682159,96.124199 37.659032,94.09799 36.55922,92.59641 z" />
  <g
     id="g4129"
     transform="matrix(1.4180201,0,0,-1.4180201,-292.73354,1043.8899)"
     xml:space="preserve"
     stroke-miterlimit="10.433"
     fill-rule="even-odd"
     font-style="normal"
     font-variant="normal"
     font-weight="normal"
     font-stretch="normal"
     font-size-adjust="none"
     letter-spacing="normal"
     word-spacing="normal"
     ns0:text="$x$\n\n\n\n\n"
     ns0:preamble="beamerPreamble.tex"
     style="font-style:normal;font-variant:normal;font-weight:normal;font-stretch:normal;letter-spacing:normal;word-spacing:normal;text-anchor:start;fill:none;fill-opacity:1;stroke:#000000;stroke-linecap:butt;stroke-linejoin:miter;stroke-miterlimit:10.43299961;stroke-dasharray:none;stroke-dashoffset:0;stroke-opacity:1">
<path
   style="fill:#000000;stroke-width:0"
   d="M 226.76,710.13 L 226.77,710.16 L 226.77,710.19 L 226.78,710.22 L 226.79,710.26 L 226.8,710.29 L 226.81,710.34 L 226.83,710.38 L 226.84,710.42 L 226.86,710.47 L 226.87,710.52 L 226.89,710.57 L 226.91,710.62 L 226.94,710.67 L 226.96,710.72 L 226.99,710.77 L 227.01,710.82 L 227.04,710.86 L 227.07,710.91 L 227.11,710.96 L 227.14,711 L 227.18,711.05 L 227.22,711.09 L 227.26,711.12 L 227.31,711.16 L 227.35,711.19 L 227.4,711.22 L 227.43,711.23 L 227.45,711.25 L 227.48,711.26 L 227.51,711.27 L 227.53,711.28 L 227.56,711.28 L 227.59,711.29 L 227.62,711.3 L 227.65,711.3 L 227.68,711.3 L 227.71,711.31 L 227.75,711.31 C 227.8,711.31 228.04,711.31 228.24,711.18 C 227.96,711.13 227.77,710.88 227.77,710.64 C 227.77,710.48 227.88,710.29 228.15,710.29 C 228.36,710.29 228.68,710.47 228.68,710.87 C 228.68,711.39 228.1,711.53 227.76,711.53 C 227.18,711.53 226.83,711 226.71,710.77 C 226.46,711.43 225.92,711.53 225.63,711.53 C 224.6,711.53 224.03,710.24 224.03,709.99 C 224.03,709.89 224.13,709.89 224.15,709.89 C 224.23,709.89 224.26,709.91 224.28,710 C 224.62,711.06 225.28,711.31 225.61,711.31 C 225.8,711.31 226.15,711.22 226.15,710.64 C 226.15,710.33 225.98,709.66 225.61,708.27 C 225.46,707.65 225.11,707.23 224.67,707.23 C 224.61,707.23 224.38,707.23 224.17,707.36 C 224.42,707.41 224.64,707.62 224.64,707.9 C 224.64,708.17 224.42,708.25 224.27,708.25 C 223.97,708.25 223.72,707.99 223.72,707.67 C 223.72,707.21 224.22,707.01 224.66,707.01 C 225.32,707.01 225.67,707.71 225.7,707.77 C 225.82,707.4 226.18,707.01 226.78,707.01 C 227.81,707.01 228.37,708.3 228.37,708.55 C 228.37,708.65 228.28,708.65 228.25,708.65 C 228.16,708.65 228.15,708.61 228.12,708.54 C 227.8,707.47 227.12,707.23 226.8,707.23 C 226.41,707.23 226.25,707.55 226.25,707.89 C 226.25,708.11 226.31,708.33 226.42,708.77 L 226.76,710.13 z"
   id="path4131" />
</g>  <g
     style="font-style:normal;font-variant:normal;font-weight:normal;font-stretch:normal;letter-spacing:normal;word-spacing:normal;text-anchor:start;fill:none;fill-opacity:1;stroke:#000000;stroke-linecap:butt;stroke-linejoin:miter;stroke-miterlimit:10.43299961;stroke-dasharray:none;stroke-dashoffset:0;stroke-opacity:1"
     ns0:preamble="beamerPreamble.tex"
     ns0:text="$y^n$\n\n\n\n\n"
     word-spacing="normal"
     letter-spacing="normal"
     font-size-adjust="none"
     font-stretch="normal"
     font-weight="normal"
     font-variant="normal"
     font-style="normal"
     fill-rule="even-odd"
     stroke-miterlimit="10.433"
     xml:space="preserve"
     transform="matrix(1.4180201,0,0,-1.4180201,-258.22607,1057.8654)"
     id="g4220">
<path
   style="fill:#000000;stroke-width:0"
   id="path4222"
   d="M 228.27,710.92 L 228.28,710.92 L 228.28,710.93 L 228.28,710.94 L 228.28,710.94 L 228.28,710.95 L 228.29,710.97 L 228.29,710.98 L 228.29,710.99 L 228.29,710.99 L 228.3,711 L 228.3,711.01 L 228.3,711.02 L 228.3,711.03 L 228.3,711.03 L 228.31,711.04 L 228.31,711.05 L 228.31,711.05 L 228.31,711.06 L 228.31,711.06 L 228.31,711.07 L 228.31,711.08 L 228.31,711.08 L 228.31,711.09 L 228.31,711.1 L 228.31,711.11 L 228.31,711.12 L 228.31,711.13 L 228.31,711.13 L 228.31,711.14 L 228.31,711.15 C 228.31,711.33 228.18,711.42 228.02,711.42 C 227.93,711.42 227.77,711.36 227.68,711.21 C 227.66,711.16 227.58,710.85 227.54,710.67 C 227.47,710.41 227.4,710.14 227.34,709.87 L 226.89,708.08 C 226.85,707.93 226.42,707.23 225.76,707.23 C 225.26,707.23 225.15,707.67 225.15,708.04 C 225.15,708.5 225.32,709.11 225.65,709.99 C 225.81,710.4 225.85,710.51 225.85,710.71 C 225.85,711.16 225.54,711.53 225.04,711.53 C 224.09,711.53 223.72,710.08 223.72,709.99 C 223.72,709.89 223.82,709.89 223.84,709.89 C 223.94,709.89 223.95,709.91 224,710.07 C 224.27,711.01 224.67,711.31 225.01,711.31 C 225.09,711.31 225.26,711.31 225.26,710.99 C 225.26,710.74 225.16,710.48 225.09,710.29 C 224.69,709.23 224.51,708.67 224.51,708.2 C 224.51,707.31 225.14,707.01 225.72,707.01 C 226.11,707.01 226.45,707.18 226.73,707.46 C 226.6,706.94 226.48,706.46 226.08,705.93 C 225.82,705.59 225.45,705.3 224.99,705.3 C 224.85,705.3 224.4,705.33 224.23,705.72 C 224.39,705.72 224.52,705.72 224.66,705.84 C 224.76,705.93 224.86,706.06 224.86,706.25 C 224.86,706.55 224.59,706.59 224.49,706.59 C 224.26,706.59 223.93,706.43 223.93,705.95 C 223.93,705.45 224.37,705.08 224.99,705.08 C 226.01,705.08 227.04,705.99 227.32,707.11 L 228.27,710.92 z" />
<path
   style="fill:#000000;stroke-width:0"
   id="path4224"
   d="M 229.53,711.18 L 229.52,711.17 L 229.52,711.16 L 229.52,711.15 L 229.51,711.14 L 229.51,711.13 L 229.51,711.12 L 229.51,711.11 L 229.5,711.1 L 229.5,711.07 L 229.49,711.05 L 229.49,711.03 L 229.48,711.02 L 229.48,711.01 L 229.48,711 L 229.48,710.99 L 229.47,710.98 L 229.47,710.97 L 229.47,710.96 L 229.47,710.95 L 229.46,710.94 L 229.46,710.93 L 229.46,710.92 L 229.46,710.92 L 229.46,710.91 L 229.46,710.91 L 229.46,710.9 L 229.46,710.9 L 229.46,710.89 L 229.46,710.89 L 229.46,710.89 L 229.46,710.89 C 229.46,710.74 229.58,710.67 229.69,710.67 C 229.82,710.67 229.93,710.76 229.96,710.82 C 230,710.88 230.06,711.11 230.09,711.25 C 230.13,711.39 230.2,711.71 230.24,711.88 C 230.29,712.03 230.33,712.19 230.36,712.35 C 230.44,712.63 230.45,712.69 230.66,712.98 C 230.85,713.26 231.18,713.62 231.7,713.62 C 232.11,713.62 232.11,713.26 232.11,713.13 C 232.11,712.71 231.81,711.94 231.7,711.64 C 231.62,711.45 231.6,711.39 231.6,711.27 C 231.6,710.9 231.9,710.67 232.26,710.67 C 232.96,710.67 233.26,711.63 233.26,711.73 C 233.26,711.83 233.17,711.83 233.15,711.83 C 233.05,711.83 233.05,711.78 233.02,711.71 C 232.86,711.15 232.56,710.86 232.28,710.86 C 232.13,710.86 232.11,710.96 232.11,711.11 C 232.11,711.27 232.14,711.36 232.27,711.67 C 232.35,711.89 232.64,712.63 232.64,713.02 C 232.64,713.69 232.1,713.81 231.73,713.81 C 231.15,713.81 230.76,713.46 230.55,713.18 C 230.5,713.66 230.09,713.81 229.8,713.81 C 229.51,713.81 229.34,713.6 229.25,713.44 C 229.1,713.18 229,712.78 229,712.75 C 229,712.66 229.1,712.66 229.12,712.66 C 229.22,712.66 229.23,712.68 229.27,712.86 C 229.38,713.28 229.51,713.62 229.78,713.62 C 229.96,713.62 230.01,713.46 230.01,713.28 C 230.01,713.14 229.95,712.89 229.9,712.7 C 229.85,712.51 229.78,712.22 229.75,712.07 L 229.53,711.18 z" />
</g>  <g
     id="g4413"
     transform="matrix(1.4180201,0,0,-1.4180201,-243.19302,1015.3669)"
     xml:space="preserve"
     stroke-miterlimit="10.433"
     fill-rule="even-odd"
     font-style="normal"
     font-variant="normal"
     font-weight="normal"
     font-stretch="normal"
     font-size-adjust="none"
     letter-spacing="normal"
     word-spacing="normal"
     ns0:text="$u^{n}$\n\n\n\n"
     ns0:preamble="beamerPreamble.tex"
     style="font-style:normal;font-variant:normal;font-weight:normal;font-stretch:normal;letter-spacing:normal;word-spacing:normal;text-anchor:start;fill:none;fill-opacity:1;stroke:#000000;stroke-linecap:butt;stroke-linejoin:miter;stroke-miterlimit:10.43299961;stroke-dasharray:none;stroke-dashoffset:0;stroke-opacity:1">
<path
   style="fill:#000000;stroke-width:0"
   d="M 226.92,707.68 L 226.93,707.64 L 226.94,707.61 L 226.96,707.57 L 226.97,707.53 L 226.99,707.5 L 227.01,707.47 L 227.02,707.43 L 227.04,707.4 L 227.06,707.37 L 227.09,707.34 L 227.11,707.32 L 227.14,707.29 L 227.16,707.26 L 227.19,707.24 L 227.21,707.22 L 227.24,707.19 L 227.27,707.17 L 227.3,707.15 L 227.33,707.13 L 227.37,707.12 L 227.4,707.1 L 227.43,707.09 L 227.47,707.07 L 227.5,707.06 L 227.54,707.05 L 227.57,707.04 L 227.61,707.03 L 227.65,707.02 L 227.69,707.02 L 227.73,707.02 L 227.77,707.01 L 227.81,707.01 C 228.15,707.01 228.38,707.24 228.54,707.56 C 228.71,707.92 228.84,708.53 228.84,708.55 C 228.84,708.65 228.75,708.65 228.72,708.65 C 228.62,708.65 228.61,708.61 228.58,708.47 C 228.44,707.91 228.25,707.23 227.84,707.23 C 227.63,707.23 227.53,707.36 227.53,707.69 C 227.53,707.91 227.65,708.38 227.73,708.73 C 227.82,709.09 227.92,709.44 228.01,709.8 C 228.04,709.95 228.13,710.33 228.18,710.48 C 228.23,710.71 228.32,711.09 228.32,711.15 C 228.32,711.33 228.18,711.42 228.04,711.42 C 227.99,711.42 227.73,711.41 227.65,711.07 C 227.46,710.34 227.02,708.6 226.9,708.07 C 226.89,708.03 226.49,707.23 225.76,707.23 C 225.25,707.23 225.15,707.68 225.15,708.05 C 225.15,708.61 225.43,709.39 225.68,710.08 C 225.8,710.38 225.85,710.52 225.85,710.71 C 225.85,711.16 225.54,711.53 225.04,711.53 C 224.09,711.53 223.72,710.08 223.72,709.99 C 223.72,709.89 223.82,709.89 223.84,709.89 C 223.94,709.89 223.95,709.91 224,710.07 C 224.25,710.94 224.63,711.31 225.01,711.31 C 225.1,711.31 225.26,711.3 225.26,710.98 C 225.26,710.74 225.15,710.45 225.09,710.3 C 224.72,709.31 224.51,708.7 224.51,708.21 C 224.51,707.26 225.2,707.01 225.73,707.01 C 226.39,707.01 226.75,707.46 226.92,707.68 z"
   id="path4415" />
<path
   style="fill:#000000;stroke-width:0"
   d="M 229.98,711.18 L 229.98,711.17 L 229.98,711.16 L 229.97,711.15 L 229.97,711.14 L 229.97,711.13 L 229.97,711.12 L 229.96,711.11 L 229.96,711.1 L 229.95,711.07 L 229.95,711.05 L 229.94,711.03 L 229.94,711.02 L 229.94,711.01 L 229.94,711 L 229.93,710.99 L 229.93,710.98 L 229.93,710.97 L 229.93,710.96 L 229.92,710.95 L 229.92,710.94 L 229.92,710.93 L 229.92,710.92 L 229.92,710.92 L 229.92,710.91 L 229.92,710.91 L 229.92,710.9 L 229.91,710.9 L 229.91,710.89 L 229.91,710.89 L 229.91,710.89 L 229.91,710.89 C 229.91,710.74 230.04,710.67 230.15,710.67 C 230.28,710.67 230.39,710.76 230.42,710.82 C 230.46,710.88 230.51,711.11 230.55,711.25 C 230.58,711.39 230.66,711.71 230.7,711.88 C 230.74,712.03 230.79,712.19 230.82,712.35 C 230.9,712.63 230.91,712.69 231.11,712.98 C 231.31,713.26 231.64,713.62 232.16,713.62 C 232.56,713.62 232.57,713.26 232.57,713.13 C 232.57,712.71 232.27,711.94 232.16,711.64 C 232.08,711.45 232.05,711.39 232.05,711.27 C 232.05,710.9 232.36,710.67 232.72,710.67 C 233.41,710.67 233.72,711.63 233.72,711.73 C 233.72,711.83 233.63,711.83 233.61,711.83 C 233.51,711.83 233.51,711.78 233.48,711.71 C 233.32,711.15 233.02,710.86 232.74,710.86 C 232.59,710.86 232.56,710.96 232.56,711.11 C 232.56,711.27 232.6,711.36 232.72,711.67 C 232.81,711.89 233.09,712.63 233.09,713.02 C 233.09,713.69 232.56,713.81 232.19,713.81 C 231.61,713.81 231.22,713.46 231.01,713.18 C 230.96,713.66 230.55,713.81 230.26,713.81 C 229.96,713.81 229.8,713.6 229.71,713.44 C 229.56,713.18 229.46,712.78 229.46,712.75 C 229.46,712.66 229.56,712.66 229.58,712.66 C 229.68,712.66 229.68,712.68 229.73,712.86 C 229.84,713.28 229.97,713.62 230.24,713.62 C 230.42,713.62 230.47,713.46 230.47,713.28 C 230.47,713.14 230.41,712.89 230.36,712.7 C 230.31,712.51 230.24,712.22 230.21,712.07 L 229.98,711.18 z"
   id="path4417" />
</g>  <g
     style="font-style:normal;font-variant:normal;font-weight:normal;font-stretch:normal;letter-spacing:normal;word-spacing:normal;text-anchor:start;fill:none;fill-opacity:1;stroke:#000000;stroke-linecap:butt;stroke-linejoin:miter;stroke-miterlimit:10.43299961;stroke-dasharray:none;stroke-dashoffset:0;stroke-opacity:1"
     ns0:preamble="beamerPreamble.tex"
     ns0:text="$y_{k}^{n+1}$\n\n\n\n\n"
     word-spacing="normal"
     letter-spacing="normal"
     font-size-adjust="none"
     font-stretch="normal"
     font-weight="normal"
     font-variant="normal"
     font-style="normal"
     fill-rule="even-odd"
     stroke-miterlimit="10.433"
     xml:space="preserve"
     transform="matrix(1.4885441,0,0,-1.4885441,-180.76164,1109.4681)"
     id="g4823">
<path
   id="path4825"
   d="M 228.27,710.92 L 228.28,710.92 L 228.28,710.93 L 228.28,710.94 L 228.28,710.94 L 228.28,710.95 L 228.29,710.97 L 228.29,710.98 L 228.29,710.99 L 228.29,710.99 L 228.3,711 L 228.3,711.01 L 228.3,711.02 L 228.3,711.03 L 228.3,711.03 L 228.31,711.04 L 228.31,711.05 L 228.31,711.05 L 228.31,711.06 L 228.31,711.06 L 228.31,711.07 L 228.31,711.08 L 228.31,711.08 L 228.31,711.09 L 228.31,711.1 L 228.31,711.11 L 228.31,711.12 L 228.31,711.13 L 228.31,711.13 L 228.31,711.14 L 228.31,711.15 C 228.31,711.33 228.18,711.42 228.02,711.42 C 227.93,711.42 227.77,711.36 227.68,711.21 C 227.66,711.16 227.58,710.85 227.54,710.67 C 227.47,710.41 227.4,710.14 227.34,709.87 L 226.89,708.08 C 226.85,707.93 226.42,707.23 225.76,707.23 C 225.26,707.23 225.15,707.67 225.15,708.04 C 225.15,708.5 225.32,709.11 225.65,709.99 C 225.81,710.4 225.85,710.51 225.85,710.71 C 225.85,711.16 225.54,711.53 225.04,711.53 C 224.09,711.53 223.72,710.08 223.72,709.99 C 223.72,709.89 223.82,709.89 223.84,709.89 C 223.94,709.89 223.95,709.91 224,710.07 C 224.27,711.01 224.67,711.31 225.01,711.31 C 225.09,711.31 225.26,711.31 225.26,710.99 C 225.26,710.74 225.16,710.48 225.09,710.29 C 224.69,709.23 224.51,708.67 224.51,708.2 C 224.51,707.31 225.14,707.01 225.72,707.01 C 226.11,707.01 226.45,707.18 226.73,707.46 C 226.6,706.94 226.48,706.46 226.08,705.93 C 225.82,705.59 225.45,705.3 224.99,705.3 C 224.85,705.3 224.4,705.33 224.23,705.72 C 224.39,705.72 224.52,705.72 224.66,705.84 C 224.76,705.93 224.86,706.06 224.86,706.25 C 224.86,706.55 224.59,706.59 224.49,706.59 C 224.26,706.59 223.93,706.43 223.93,705.95 C 223.93,705.45 224.37,705.08 224.99,705.08 C 226.01,705.08 227.04,705.99 227.32,707.11 L 228.27,710.92 z"
   style="fill:#000000;stroke-width:0" />
<path
   id="path4827"
   d="M 229.53,711.83 L 229.52,711.82 L 229.52,711.81 L 229.52,711.8 L 229.51,711.79 L 229.51,711.78 L 229.51,711.77 L 229.51,711.76 L 229.5,711.75 L 229.5,711.73 L 229.49,711.7 L 229.49,711.68 L 229.48,711.66 L 229.48,711.65 L 229.48,711.64 L 229.47,711.63 L 229.47,711.62 L 229.47,711.61 L 229.47,711.6 L 229.46,711.59 L 229.46,711.58 L 229.46,711.58 L 229.46,711.57 L 229.46,711.56 L 229.46,711.56 L 229.46,711.55 L 229.46,711.55 L 229.46,711.55 L 229.46,711.55 L 229.46,711.54 L 229.46,711.54 C 229.46,711.39 229.58,711.32 229.69,711.32 C 229.82,711.32 229.93,711.41 229.96,711.47 C 230,711.54 230.06,711.76 230.09,711.91 C 230.13,712.04 230.2,712.36 230.24,712.53 C 230.29,712.69 230.33,712.84 230.36,713 C 230.44,713.29 230.45,713.34 230.66,713.63 C 230.85,713.91 231.18,714.27 231.7,714.27 C 232.11,714.27 232.11,713.91 232.11,713.78 C 232.11,713.36 231.81,712.59 231.7,712.3 C 231.62,712.1 231.6,712.04 231.6,711.92 C 231.6,711.55 231.9,711.32 232.26,711.32 C 232.96,711.32 233.26,712.28 233.26,712.39 C 233.26,712.48 233.17,712.48 233.15,712.48 C 233.05,712.48 233.05,712.44 233.02,712.36 C 232.86,711.8 232.56,711.52 232.28,711.52 C 232.13,711.52 232.11,711.61 232.11,711.76 C 232.11,711.92 232.14,712.01 232.27,712.33 C 232.35,712.54 232.64,713.28 232.64,713.67 C 232.64,714.35 232.1,714.47 231.73,714.47 C 231.15,714.47 230.76,714.11 230.55,713.83 C 230.5,714.31 230.09,714.47 229.8,714.47 C 229.51,714.47 229.34,714.25 229.25,714.09 C 229.1,713.83 229,713.43 229,713.4 C 229,713.31 229.1,713.31 229.12,713.31 C 229.22,713.31 229.23,713.33 229.27,713.52 C 229.38,713.93 229.51,714.27 229.78,714.27 C 229.96,714.27 230.01,714.12 230.01,713.93 C 230.01,713.8 229.95,713.54 229.9,713.35 C 229.85,713.16 229.78,712.88 229.75,712.72 L 229.53,711.83 z"
   style="fill:#000000;stroke-width:0" />
<path
   id="path4829"
   d="M 236.83,712.97 L 238.96,712.97 C 239.06,712.97 239.22,712.97 239.22,713.13 C 239.22,713.31 239.06,713.31 238.96,713.31 L 236.83,713.31 L 236.83,715.45 C 236.83,715.54 236.83,715.71 236.66,715.71 C 236.49,715.71 236.49,715.55 236.49,715.45 L 236.49,713.31 L 234.35,713.31 C 234.26,713.31 234.09,713.31 234.09,713.14 C 234.09,712.97 234.25,712.97 234.35,712.97 L 236.49,712.97 L 236.49,710.83 C 236.49,710.73 236.49,710.57 236.66,710.57 C 236.83,710.57 236.83,710.73 236.83,710.83 L 236.83,712.97 z"
   style="fill:#000000;stroke-width:0" />
<path
   id="path4831"
   d="M 242.05,715.83 L 242.05,715.83 L 242.05,715.84 L 242.05,715.85 L 242.05,715.86 L 242.05,715.87 L 242.05,715.87 L 242.05,715.88 L 242.05,715.89 L 242.05,715.89 L 242.05,715.9 L 242.05,715.91 L 242.05,715.91 L 242.05,715.92 L 242.05,715.92 L 242.05,715.93 L 242.05,715.94 L 242.04,715.94 L 242.04,715.95 L 242.04,715.95 L 242.04,715.96 L 242.04,715.97 L 242.03,715.98 L 242.03,715.98 L 242.02,715.99 L 242.02,715.99 L 242.01,716 L 242.01,716 L 242,716.01 L 241.99,716.01 L 241.99,716.01 L 241.98,716.01 L 241.97,716.02 L 241.96,716.02 L 241.96,716.02 L 241.95,716.02 L 241.95,716.02 L 241.94,716.02 L 241.93,716.02 L 241.93,716.02 L 241.92,716.02 L 241.91,716.02 L 241.91,716.02 L 241.9,716.02 L 241.89,716.02 L 241.88,716.02 L 241.88,716.02 L 241.87,716.02 L 241.86,716.02 L 241.85,716.02 L 241.84,716.02 C 241.4,715.58 240.76,715.57 240.48,715.57 L 240.48,715.32 C 240.64,715.32 241.1,715.32 241.49,715.52 L 241.49,711.96 C 241.49,711.73 241.49,711.64 240.79,711.64 L 240.52,711.64 L 240.52,711.39 C 240.65,711.4 241.51,711.42 241.76,711.42 C 241.98,711.42 242.86,711.4 243.01,711.39 L 243.01,711.64 L 242.75,711.64 C 242.05,711.64 242.05,711.73 242.05,711.96 L 242.05,715.83 z"
   style="fill:#000000;stroke-width:0" />
<path
   id="path4833"
   d="M 230.5,708.75 L 230.5,708.75 L 230.5,708.75 L 230.5,708.76 L 230.5,708.76 L 230.5,708.76 L 230.5,708.76 L 230.5,708.76 L 230.5,708.76 L 230.5,708.76 L 230.5,708.77 L 230.5,708.77 L 230.51,708.78 L 230.51,708.78 L 230.51,708.78 L 230.51,708.79 L 230.51,708.79 L 230.51,708.8 L 230.51,708.8 L 230.51,708.81 L 230.52,708.82 L 230.52,708.83 L 230.52,708.83 L 230.52,708.83 L 230.52,708.84 L 230.52,708.84 L 230.52,708.85 L 230.52,708.85 L 230.52,708.85 L 230.52,708.85 L 230.52,708.86 L 230.52,708.86 L 230.53,708.86 L 230.53,708.86 L 230.53,708.86 L 230.53,708.86 L 230.53,708.86 L 230.53,708.86 L 230.53,708.86 L 230.53,708.86 L 230.53,708.86 C 230.53,708.9 230.5,708.96 230.41,708.96 C 230.27,708.96 229.7,708.91 229.52,708.89 C 229.47,708.89 229.37,708.88 229.37,708.73 C 229.37,708.64 229.47,708.64 229.55,708.64 C 229.88,708.64 229.88,708.59 229.88,708.53 C 229.88,708.48 229.87,708.44 229.86,708.38 L 228.87,704.43 C 228.84,704.3 228.84,704.29 228.84,704.28 C 228.84,704.17 228.92,704.05 229.07,704.05 C 229.26,704.05 229.35,704.19 229.4,704.35 C 229.41,704.37 229.71,705.6 229.74,705.7 C 230.23,705.65 230.63,705.49 230.63,705.13 C 230.63,705.09 230.63,705.06 230.62,704.99 C 230.59,704.88 230.59,704.85 230.59,704.77 C 230.59,704.28 230.99,704.05 231.33,704.05 C 232,704.05 232.21,705.11 232.21,705.12 C 232.21,705.21 232.12,705.21 232.1,705.21 C 232,705.21 232,705.18 231.96,705.04 C 231.88,704.74 231.69,704.25 231.35,704.25 C 231.16,704.25 231.1,704.42 231.1,704.61 C 231.1,704.73 231.1,704.74 231.15,704.92 C 231.15,704.95 231.18,705.06 231.18,705.14 C 231.18,705.76 230.34,705.86 230.05,705.88 C 230.25,706.01 230.51,706.24 230.63,706.34 C 230.99,706.67 231.34,707 231.73,707 C 231.81,707 231.9,706.98 231.96,706.91 C 231.65,706.86 231.59,706.63 231.59,706.52 C 231.59,706.37 231.71,706.26 231.87,706.26 C 232.06,706.26 232.27,706.42 232.27,706.71 C 232.27,706.94 232.1,707.2 231.73,707.2 C 231.34,707.2 230.97,706.91 230.62,706.58 C 230.32,706.3 230.09,706.09 229.81,705.97 L 230.5,708.75 z"
   style="fill:#000000;stroke-width:0" />
</g>  <g
     style="font-style:normal;font-variant:normal;font-weight:normal;font-stretch:normal;letter-spacing:normal;word-spacing:normal;text-anchor:start;fill:none;fill-opacity:1;stroke:#000000;stroke-linecap:butt;stroke-linejoin:miter;stroke-miterlimit:10.43299961;stroke-dasharray:none;stroke-dashoffset:0;stroke-opacity:1"
     ns0:preamble="beamerPreamble.tex"
     ns0:text="b)\n\n\n\n\n\n\n"
     word-spacing="normal"
     letter-spacing="normal"
     font-size-adjust="none"
     font-stretch="normal"
     font-weight="normal"
     font-variant="normal"
     font-style="normal"
     fill-rule="even-odd"
     stroke-miterlimit="10.433"
     xml:space="preserve"
     transform="matrix(1.4180201,0,0,-1.4180201,-214.12065,1096.5831)"
     id="g2857">
<path
   id="path2859"
   d="M 225.15,710.88 L 225.15,714.04 L 223.71,713.93 L 223.71,713.62 C 224.41,713.62 224.49,713.55 224.49,713.06 L 224.49,707.12 L 224.74,707.12 C 224.75,707.13 224.83,707.27 225.1,707.74 C 225.25,707.51 225.66,707.01 226.4,707.01 L 226.36,707.23 C 225.91,707.23 225.55,707.47 225.32,707.84 C 225.18,708.05 225.18,708.08 225.18,708.26 L 225.18,708.26 L 225.18,710.31 C 225.18,710.5 225.18,710.51 225.29,710.67 C 225.67,711.23 226.22,711.31 226.46,711.31 C 226.91,711.31 227.27,711.05 227.51,710.67 C 227.77,710.26 227.8,709.69 227.8,709.28 C 227.8,708.92 227.78,708.32 227.49,707.87 C 227.28,707.56 226.9,707.23 226.36,707.23 L 226.4,707.01 C 227.59,707.01 228.62,707.99 228.62,709.27 C 228.62,710.54 227.65,711.53 226.51,711.53 C 225.73,711.53 225.3,711.06 225.15,710.88 z"
   style="fill:#000000;stroke-width:0" />
<path
   id="path2861"
   d="M 231.85,709.61 L 231.85,709.69 L 231.85,709.76 L 231.85,709.84 L 231.85,709.92 L 231.84,710.09 L 231.83,710.27 L 231.81,710.45 L 231.79,710.64 L 231.76,710.84 L 231.73,711.04 L 231.69,711.24 L 231.65,711.45 L 231.59,711.66 L 231.53,711.87 L 231.46,712.08 L 231.38,712.3 L 231.34,712.4 L 231.29,712.51 L 231.25,712.62 L 231.2,712.72 C 230.6,713.95 229.74,714.59 229.64,714.59 C 229.58,714.59 229.54,714.55 229.54,714.49 C 229.54,714.47 229.54,714.45 229.73,714.27 C 230.71,713.28 231.28,711.7 231.28,709.61 C 231.28,707.91 230.91,706.16 229.67,704.9 C 229.54,704.78 229.54,704.76 229.54,704.73 C 229.54,704.67 229.58,704.63 229.64,704.63 C 229.74,704.63 230.64,705.31 231.23,706.58 C 231.74,707.67 231.85,708.78 231.85,709.61 z"
   style="fill:#000000;stroke-width:0" />
</g></svg>
